<?xml version="1.0" encoding="utf-8"?>
<!-- Generator: Adobe Illustrator 22.0.1, SVG Export Plug-In . SVG Version: 6.00 Build 0)  -->
<svg version="1.1" id="Layer_1" xmlns="http://www.w3.org/2000/svg" xmlns:xlink="http://www.w3.org/1999/xlink" x="0px" y="0px"
	 viewBox="0 0 1000 1000" style="enable-background:new 0 0 1000 1000;" xml:space="preserve">
<style type="text/css">
	.st0{fill:url(#SVGID_1_);}
	.st1{fill:url(#SVGID_2_);}
	.st2{fill:url(#SVGID_3_);}
	.st3{fill:url(#SVGID_4_);}
</style>
<g>
	<linearGradient id="SVGID_1_" gradientUnits="userSpaceOnUse" x1="192.4536" y1="502.7655" x2="834.931" y2="502.7655">
		<stop  offset="0" style="stop-color:#00327F"/>
		<stop  offset="1" style="stop-color:#000000"/>
	</linearGradient>
	<path class="st0" d="M210.8,375.7c2-4,3.8-8.2,5.7-12.2c2-4.1,3.8-8.2,5.9-12.1l3.1-6c1.1-2,2.2-3.9,3.3-5.9c1.1-2,2.2-4,3.4-5.9
		l3.5-5.8c9.5-15.3,20.4-29.8,32.4-43.4c24-27.1,52.7-50.3,84.7-68.1c32-17.6,67.1-30.3,103.6-36.2c18.2-3,36.7-4.6,55.2-4.4
		c18.5,0.1,37.1,1.7,55.5,4.8c36.7,6.6,72.4,19.6,105,38.3c16.3,9.5,31.7,20.3,46.2,32.4c14.4,12.1,27.9,25.5,40.1,39.9l8.9,11
		l8.4,11.5c5.4,7.8,10.6,15.7,15.3,23.9c9.5,16.4,17.6,33.7,24.1,51.5c13.1,35.7,19.5,73.8,19.8,111.7c0,19-1.7,38-4.9,56.7l-1.3,7
		l-0.6,3.5c-0.2,1.2-0.5,2.3-0.8,3.5c-1.1,4.6-2.1,9.3-3.3,13.9l-3.9,13.7c-1.4,4.5-3,9-4.5,13.5c-6.4,17.9-14.5,35.2-23.9,51.7
		c-9.4,16.5-20.1,32.3-32.3,46.8c-12.1,14.6-25.5,28.1-39.9,40.4c-3.6,3.1-7.2,6.2-11,9l-5.6,4.3l-2.8,2.2c-0.9,0.7-1.9,1.4-2.9,2
		l-5.8,4c-2,1.3-3.9,2.7-5.9,4l-12,7.5c-16.3,9.6-33.4,17.8-51,24.5c-17.7,6.6-35.9,11.8-54.3,15.3c-4.6,0.8-9.3,1.5-13.9,2.3
		c-1.2,0.2-2.3,0.4-3.5,0.5l-3.5,0.4l-7,0.8l-3.5,0.4c-1.2,0.1-2.3,0.3-3.5,0.3l-7,0.4l-7,0.4c-1.2,0.1-2.3,0.1-3.5,0.1l-3.5,0l-7,0
		c-2.3,0-4.7,0-7-0.1c-4.7-0.2-9.3-0.3-14-0.7l-7-0.5c-2.3-0.2-4.6-0.5-7-0.8l-7-0.8l-6.9-1.1c-18.4-3-36.6-7.4-54.2-13.6
		c-17.6-6.2-34.6-13.8-50.8-22.7c-32.3-18.2-61.3-41.7-85.1-69.5c-24-27.6-42.7-59.5-55.3-93.3c-1-2.6,0.4-5.5,3-6.5
		c2.4-0.9,5.1,0.2,6.3,2.4l0,0c15.8,31.1,36.3,59.5,60.8,83.5c1.5,1.5,3,3,4.6,4.5l4.7,4.3l2.4,2.2l2.4,2.1l4.9,4.2
		c1.6,1.4,3.3,2.7,5,4c1.7,1.3,3.3,2.7,5,4l5.1,3.8l2.6,1.9l2.6,1.8c14,9.8,28.6,18.4,43.9,25.7c15.3,7.3,31.1,13.3,47.3,17.9
		c16.2,4.7,32.7,7.9,49.4,9.7c16.7,1.7,33.4,2.4,50.1,1.3l3.1-0.1c1,0,2.1-0.1,3.1-0.2l6.2-0.6l6.2-0.6c1-0.1,2.1-0.2,3.1-0.4
		l3.1-0.5l6.2-0.9l3.1-0.4c1-0.2,2-0.4,3.1-0.6c4.1-0.8,8.2-1.6,12.2-2.5c16.2-3.7,32-8.8,47.3-15.2c15.3-6.3,30.1-13.9,44.1-22.7
		l10.3-6.8c3.4-2.4,6.7-4.9,10-7.3c0.8-0.6,1.7-1.2,2.5-1.8l2.4-1.9l4.8-3.9c3.3-2.5,6.3-5.3,9.4-8c12.3-11,23.7-23,33.9-35.8
		c20.7-25.7,36.6-54.9,47.5-85.8c1.3-3.9,2.7-7.8,3.9-11.7l3.3-11.8c1-4,1.8-8,2.8-12c0.2-1,0.5-2,0.7-3l0.5-3l1.1-6.1
		c2.7-16.2,4-32.6,4.1-49c0-16.4-1.5-32.8-4.1-49c-2.7-16.2-6.6-32.2-12.1-47.7c-5.4-15.5-12.1-30.6-20-45l-3-5.4l-1.5-2.7l-1.6-2.6
		l-3.3-5.3l-1.6-2.6l-0.8-1.3l-0.9-1.3l-7-10.2l-7.5-9.9c-10.2-13-21.6-25.1-33.8-36.2c-12.2-11.2-25.4-21.3-39.4-30.4
		c-28-17.9-59.2-31.2-91.8-39c-16.4-3.8-33.1-6.3-49.9-7.3c-8.4-0.6-16.9-0.8-25.4-0.6l-6.4,0.2c-2.1,0.1-4.2,0.3-6.3,0.4
		c-2.1,0.1-4.2,0.2-6.3,0.4l-6.3,0.6c-33.8,3.5-67.1,13.1-97.9,28c-15.4,7.5-30.2,16.4-44.2,26.4l-2.6,1.9l-2.6,2l-5.1,3.9
		c-1.7,1.3-3.3,2.7-5,4.1c-1.7,1.4-3.4,2.7-5,4.1l-4.8,4.3l-2.4,2.2l-2.3,2.2l-4.7,4.5c-1.6,1.5-3,3.1-4.6,4.6
		c-12.1,12.4-23.3,25.8-33,40.1l-3.6,5.4c-1.2,1.8-2.3,3.7-3.5,5.5c-1.1,1.8-2.3,3.7-3.4,5.5l-3.2,5.7c-2.2,3.7-4.2,7.6-6.2,11.5
		c-1,1.9-1.9,3.9-2.8,5.9c-0.9,2-1.8,4-2.6,6l-0.1,0.2c-1.1,2.6-4,3.8-6.6,2.7c-2.6-1.1-3.8-4-2.7-6.6
		C210.7,376,210.7,375.8,210.8,375.7z"/>
</g>
<g>
	<linearGradient id="SVGID_2_" gradientUnits="userSpaceOnUse" x1="749.0938" y1="503.3604" x2="209.8758" y2="503.3604">
		<stop  offset="0" style="stop-color:#00327F"/>
		<stop  offset="1" style="stop-color:#000000"/>
	</linearGradient>
	<path class="st1" d="M714.9,355.2c-0.9-1.4-1.8-2.8-2.8-4.2c-1-1.4-2-2.7-3.1-4l-3.2-3.9l-3.3-3.8c-2.2-2.6-4.5-5-6.8-7.5l-3.5-3.6
		c-1.2-1.2-2.4-2.4-3.6-3.6l-3.6-3.5l-3.7-3.4c-2.5-2.3-5.1-4.4-7.6-6.6c-5.2-4.2-10.5-8.3-16-12.1c-21.9-15.4-46.2-26.9-71.4-34.4
		c-25.3-7.4-51.5-10.6-77.4-9.8c-3.2,0.1-6.5,0.2-9.7,0.6c-3.2,0.3-6.4,0.5-9.6,0.8l-9.6,1.3l-2.4,0.3l-2.4,0.4l-4.7,0.9
		c-12.6,2.4-25,5.6-36.9,10.1c-11.9,4.4-23.5,9.5-34.6,15.5c-11,6.1-21.6,12.9-31.5,20.5c-10,7.5-19.3,15.9-27.9,24.8
		c-8.6,8.9-16.7,18.4-23.7,28.5c-7.2,10-13.6,20.6-19.2,31.5l-4,8.3c-0.7,1.4-1.3,2.8-1.9,4.2l-1.8,4.2c-0.6,1.4-1.3,2.8-1.8,4.2
		l-1.6,4.3c-1.1,2.9-2.2,5.7-3.1,8.6c-4,11.6-6.8,23.5-8.9,35.5c-1.1,6-1.7,12.1-2.5,18.1l-0.6,9.1l-0.2,2.3l-0.1,2.3l-0.1,4.6
		l-0.1,4.6c0,1.5,0.1,3.1,0.1,4.6l0.1,4.6l0,2.3l0,1.1l0.1,1.1l0.7,9.1c0.1,1.5,0.3,3,0.5,4.5l0.6,4.5c0.2,1.5,0.3,3,0.6,4.5
		l0.8,4.5l0.8,4.5c0.1,0.8,0.2,1.5,0.4,2.3l0.5,2.2l2,8.9l2.4,8.8c3.5,11.7,7.8,23.1,12.9,34.2c5.2,11.1,11.3,21.7,18.1,31.9
		l2.6,3.8c0.9,1.3,1.7,2.6,2.6,3.8l5.6,7.3c3.9,4.7,7.8,9.5,12,14l3.1,3.4c1.1,1.1,2.2,2.2,3.3,3.3l3.3,3.3l1.6,1.6l1.7,1.5l6.8,6.2
		l7.1,5.9c9.7,7.7,19.9,14.7,30.6,21c10.7,6.3,22,11.5,33.6,16.1l4.4,1.7c1.5,0.6,2.9,1.1,4.4,1.6l8.9,2.9c6,1.7,12,3.5,18.2,4.7
		l4.6,1c1.5,0.4,3.1,0.6,4.6,0.9c3.1,0.5,6.2,1.1,9.3,1.6l9.4,1.1c1.6,0.2,3.1,0.3,4.7,0.4l4.7,0.4l4.7,0.4l4.8,0.1l9.5,0.2
		c3.2-0.1,6.3-0.2,9.5-0.3l4.8-0.2c1.6-0.1,3.2-0.3,4.8-0.4l9.5-0.9c3.2-0.4,6.3-0.9,9.5-1.4l4.8-0.7c1.6-0.3,3.1-0.7,4.7-1l9.4-2
		c3.1-0.8,6.2-1.7,9.3-2.5l4.7-1.2c1.5-0.5,3.1-1,4.6-1.5l9.2-3.1c3-1.2,6-2.4,9.1-3.6c1.5-0.6,3.1-1.2,4.5-1.8l4.4-2
		c3-1.4,6-2.7,8.9-4.1l8.7-4.6c3-1.4,5.7-3.2,8.6-4.9c11.4-6.6,22.2-14.3,32.6-22.7l7.7-6.4c0.7-0.5,1.3-1.1,1.9-1.7l1.8-1.7
		l3.7-3.4l3.7-3.4c1.2-1.2,2.4-2.4,3.5-3.6l7.1-7.2l0.1-0.1c2-2,5.2-2,7.2,0c1.7,1.7,2,4.3,0.8,6.2
		c-29.4,48.2-76.8,86.7-132.2,106.9l-10.5,3.5c-1.8,0.6-3.5,1.2-5.3,1.7l-5.3,1.4c-3.6,0.9-7.1,1.9-10.7,2.8l-10.9,2.2
		c-1.8,0.3-3.6,0.8-5.5,1l-5.5,0.8c-3.7,0.5-7.4,1-11,1.5l-11.1,0.8l-5.6,0.4l-5.6,0.1l-5.6,0.1c-1.9,0-3.7,0.1-5.6,0l-11.2-0.4
		c-3.7-0.2-7.5-0.6-11.2-0.9c-1.9-0.2-3.7-0.3-5.6-0.6l-5.6-0.8c-7.5-0.9-14.8-2.5-22.2-4l-11-2.7c-1.8-0.4-3.6-1-5.4-1.5l-5.4-1.6
		c-1.8-0.6-3.6-1.1-5.4-1.7l-5.3-1.9c-3.5-1.3-7.1-2.5-10.6-4c-3.5-1.5-7-2.9-10.4-4.4l-10.3-4.9c-13.5-6.9-26.5-14.8-38.8-23.7
		c-12.4-8.9-23.9-18.9-34.6-29.7c-5.5-5.3-10.5-11.1-15.5-16.8l-7.2-8.9c-1.2-1.5-2.3-3-3.5-4.6l-3.4-4.6
		c-8.9-12.4-16.8-25.6-23.7-39.3c-6.7-13.8-12.4-28.1-17-42.7l-3.2-11.1l-2.7-11.2l-0.7-2.8c-0.2-0.9-0.4-1.9-0.5-2.8l-1-5.7l-1-5.7
		c-0.3-1.9-0.5-3.8-0.8-5.7l-0.7-5.7c-0.2-1.9-0.5-3.8-0.6-5.7l-0.9-11.5l-0.1-1.4l0-1.4l-0.1-2.9L210,506c0-1.9-0.1-3.8-0.1-5.7
		l0.1-5.7l0.2-5.7l0.1-2.9l0.2-2.9l0.9-11.5c1-7.6,1.8-15.2,3.4-22.8l1.1-5.7c0.3-1.9,0.9-3.7,1.3-5.6l1.3-5.6
		c0.5-1.9,0.8-3.7,1.4-5.6l3.3-11c1.2-3.7,2.5-7.2,3.7-10.9c5.3-14.4,11.7-28.3,19.2-41.7c7.6-13.3,16.2-25.9,25.7-37.8
		c19.1-23.7,42-44.1,67.5-60.3c12.8-8,26.1-15.1,39.8-21c13.8-5.8,28-10.6,42.5-14.1c14.4-3.7,29.2-5.8,43.8-7.1l5.5-0.4l2.8-0.2
		l2.8-0.1l11-0.3c3.7,0,7.3,0.2,11,0.2c3.7,0,7.3,0.3,11,0.6c14.6,1,29,3.4,43.2,6.7c1.8,0.4,3.5,0.9,5.3,1.3
		c1.8,0.5,3.5,0.9,5.3,1.4c3.5,1,7,2,10.4,3.1l5.2,1.7l5.1,1.8c3.4,1.2,6.7,2.6,10.1,3.9c6.7,2.8,13.2,5.7,19.6,9
		c6.4,3.2,12.7,6.7,18.8,10.4c3,1.9,6.1,3.7,9.1,5.7c1.5,1,3,1.9,4.4,3l4.4,3.1c1.5,1,2.9,2.1,4.3,3.2c1.4,1.1,2.9,2.1,4.3,3.2
		c2.8,2.2,5.6,4.4,8.3,6.7c10.9,9.1,21,19.1,30.3,29.7c1.2,1.3,2.3,2.7,3.4,4l3.4,4.1c2.2,2.8,4.4,5.5,6.5,8.3
		c4.3,5.6,8,11.6,12.4,17.1c1.7,2.2,1.4,5.4-0.8,7.1c-2.2,1.7-5.4,1.4-7.1-0.8c-0.1-0.1-0.2-0.3-0.3-0.5L714.9,355.2z"/>
</g>
<g>
	<linearGradient id="SVGID_3_" gradientUnits="userSpaceOnUse" x1="73.4807" y1="503.8098" x2="925.9672" y2="503.8098">
		<stop  offset="0" style="stop-color:#00327F"/>
		<stop  offset="1" style="stop-color:#000000"/>
	</linearGradient>
	<path class="st2" d="M887.8,340.7c-1.1-2.7-2.2-5.3-3.4-7.9c-1.2-2.6-2.4-5.3-3.7-7.8c-2.7-5.1-5.3-10.2-8.3-15.2l-4.3-7.5
		c-1.5-2.5-3.1-4.9-4.6-7.3l-2.3-3.6l-1.1-1.8l-1.2-1.8l-4.8-7.1c-0.8-1.2-1.6-2.4-2.4-3.5l-2.5-3.5l-5.1-6.9
		c-1.7-2.3-3.5-4.5-5.3-6.8c-1.8-2.2-3.5-4.5-5.4-6.7l-5.6-6.5l-2.8-3.3l-2.9-3.2l-5.8-6.3c-1.9-2.1-4-4.1-6-6.1c-2-2-4-4.1-6.1-6.1
		l-6.2-5.9l-3.1-2.9l-3.2-2.8l-6.4-5.6c-2.1-1.9-4.4-3.6-6.6-5.4c-2.2-1.8-4.4-3.6-6.7-5.3l-6.8-5.1l-3.4-2.6l-3.5-2.4
		c-18.5-13.2-38.1-24.8-58.5-34.5c-20.4-9.7-41.6-17.6-63.2-23.7c-1.4-0.4-2.7-0.8-4-1.1l-4.1-1l-8.2-2c-2.7-0.7-5.5-1.2-8.2-1.8
		c-2.7-0.6-5.5-1.2-8.2-1.7l-8.3-1.4c-2.8-0.5-5.5-1-8.3-1.3c-5.5-0.7-11.1-1.6-16.6-2l-8.3-0.8c-2.8-0.2-5.6-0.3-8.3-0.5
		c-2.8-0.1-5.6-0.3-8.3-0.4l-8.3-0.2c-11.1-0.2-22.2,0.2-33.3,1c-22.1,1.6-44,4.9-65.5,10.1c-42.8,10.6-83.4,28.2-120,51.9
		c-18.2,11.9-35.4,25.3-51.4,40l-6,5.5l-5.7,5.8l-5.7,5.7l-1.4,1.4l-1.4,1.5l-2.7,3l-5.5,6l-2.7,3l-2.6,3.1l-5.2,6.2l-2.6,3.1
		l-1.3,1.6l-1.2,1.6l-9.7,12.9l-9.1,13.4l-1.1,1.7l-1.1,1.7l-2.1,3.4l-4.2,6.9l-2.1,3.4l-1.9,3.5l-3.9,7.1l-2,3.5l-1,1.8
		c-0.3,0.6-0.6,1.2-0.9,1.8l-3.6,7.2l-3.6,7.2l-3.2,7.4c-2.1,4.9-4.4,9.8-6.2,14.8l-2.9,7.5l-1.4,3.8c-0.5,1.2-0.8,2.5-1.3,3.8
		c-1.6,5.1-3.4,10.2-5,15.3l-4.2,15.5c-0.2,0.6-0.4,1.3-0.5,1.9l-0.4,2l-0.9,3.9l-1.8,7.8l-0.9,3.9c-0.3,1.3-0.5,2.6-0.7,4l-1.4,7.9
		c-3.5,21.1-5.3,42.5-5.4,64c0.2,21.4,1.9,42.8,5.4,63.9l1.4,7.9l0.7,4c0.3,1.3,0.6,2.6,0.9,3.9c1.2,5.2,2.3,10.4,3.6,15.6l4.3,15.5
		c0.3,1.3,0.8,2.6,1.2,3.8l1.3,3.8l2.5,7.6c7.1,20.2,15.8,39.8,26.2,58.6c10.3,18.8,22.2,36.8,35.7,53.5
		c26.8,33.6,59.2,62.8,95.7,86c18.3,11.5,37.5,21.5,57.5,29.9c20,8.4,40.6,15.1,61.8,20.1c21.2,4.8,42.8,7.9,64.6,9.3
		c21.8,1.5,43.8,0.9,65.7-1.3c43.7-4.4,86.8-16.6,127.1-35.3c20.2-9.4,39.5-20.7,58-33.4l3.5-2.4l3.4-2.5l6.8-5
		c2.3-1.6,4.4-3.5,6.7-5.2c2.2-1.8,4.4-3.4,6.6-5.3l6.4-5.5l3.2-2.7l3.1-2.8l6.3-5.7c1.1-0.9,2.1-1.9,3.1-2.9l3-2.9
		c32.6-31.4,59.9-68.6,81.4-109.4l0,0c1.3-2.5,4.3-3.4,6.8-2.1c2.3,1.2,3.2,3.8,2.4,6.2c-16,44.5-40.2,86.6-71.5,123.3
		c-31,36.9-69.1,68.1-111.5,92.4c-42.5,24-89.5,40.9-138.3,48.8l-9.1,1.5c-3.1,0.4-6.1,0.8-9.2,1.2c-3.1,0.3-6.1,0.8-9.2,1.1
		l-9.2,0.8c-6.2,0.6-12.3,0.7-18.5,1c-1.5,0.1-3.1,0.2-4.6,0.2l-4.6,0l-9.3,0c-24.8-0.3-49.6-2.6-74.1-7
		c-49-9.1-96.5-26.9-139.7-52.3c-21.6-12.7-42-27.4-61.1-43.7c-19.1-16.3-36.8-34.2-52.9-53.5c-32.2-38.6-57.4-83.1-74.6-130.6
		l-3.1-8.9l-1.5-4.5c-0.5-1.5-1-3-1.5-4.5l-5.2-18.2c-1.6-6.1-2.9-12.3-4.4-18.4c-0.4-1.5-0.7-3.1-1.1-4.6l-0.8-4.7l-1.7-9.3
		c-4.2-24.9-6.4-50.1-6.5-75.3c0.1-25.2,2.4-50.4,6.8-75.2l1.7-9.3c0.3-1.5,0.6-3.1,0.9-4.6l1.1-4.6l2.2-9.2l1.1-4.6
		c0.4-1.5,0.7-3.1,1.2-4.6l5.3-18.1c2-6,4.1-11.9,6.2-17.9c0.5-1.5,1-3,1.6-4.4l1.8-4.4l3.6-8.8c2.3-5.9,5-11.5,7.7-17.3
		c1.3-2.8,2.6-5.7,4-8.5l4.4-8.3l4.4-8.3c0.4-0.7,0.7-1.4,1.1-2.1l1.2-2l2.4-4.1c12.7-21.7,27.1-42.4,43.4-61.4l1.5-1.8l1.6-1.7
		l3.1-3.5l6.3-7l3.1-3.5l3.3-3.3l6.6-6.7l3.3-3.3l1.7-1.7l1.7-1.6l6.9-6.3l6.9-6.3l7.2-6c19.2-15.9,39.7-30.2,61.3-42.6
		c21.7-12.2,44.3-22.7,67.6-31c23.3-8.3,47.3-14.7,71.6-18.9c24.3-4,48.9-6,73.3-6c12.2,0,24.4,0.4,36.6,1.6l9.1,0.8
		c3,0.3,6.1,0.8,9.1,1.1c3,0.4,6,0.7,9.1,1.2l9,1.5c48,8.1,94.2,25,136.1,48.5c2.6,1.5,5.2,3,7.8,4.6l3.9,2.3l1.9,1.1l1.9,1.2
		l7.6,4.9c1.3,0.8,2.5,1.6,3.8,2.4l3.7,2.6l7.4,5.1c2.4,1.7,4.8,3.6,7.2,5.3l3.6,2.7c1.2,0.9,2.4,1.8,3.6,2.7l7,5.6
		c18.6,15,35.8,31.7,51.5,49.6c15.7,17.9,29.9,37,42.3,57.2l4.6,7.6l1.1,1.9l1.1,1.9l2.2,3.9c1.4,2.6,2.9,5.2,4.3,7.8l4,7.9
		c2.8,5.2,5.1,10.6,7.7,16c1.3,2.6,2.4,5.4,3.7,8.1c1.2,2.7,2.5,5.4,3.8,8c1.2,2.5,0.2,5.5-2.3,6.8c-2.5,1.2-5.5,0.2-6.8-2.3
		c-0.1-0.1-0.1-0.2-0.2-0.3L887.8,340.7z"/>
</g>
<g>
	<linearGradient id="SVGID_4_" gradientUnits="userSpaceOnUse" x1="900.7986" y1="502.2653" x2="200.1625" y2="502.2653">
		<stop  offset="0" style="stop-color:#00327F"/>
		<stop  offset="1" style="stop-color:#000000"/>
	</linearGradient>
	<path class="st3" d="M214.1,292c1.5-1.9,2.9-3.9,4.3-5.9l2.1-3l2.2-2.9l4.3-5.9l4.5-5.7l2.2-2.9l2.3-2.8l4.6-5.6l4.8-5.5l2.4-2.7
		c0.8-0.9,1.6-1.8,2.5-2.7l5-5.3c1.7-1.7,3.4-3.5,5.1-5.2c3.4-3.5,7-6.8,10.5-10.1c7.2-6.5,14.5-13,22.1-19
		c3.8-3.1,7.7-5.9,11.6-8.9c2-1.5,4-2.8,5.9-4.2c2-1.4,4-2.8,6-4.1l6.1-4c2-1.4,4.1-2.6,6.2-3.9c4.1-2.6,8.3-5,12.6-7.5
		c2.1-1.2,4.3-2.3,6.4-3.5c2.2-1.1,4.3-2.4,6.5-3.4c4.4-2.2,8.7-4.4,13.1-6.4c8.8-4.2,17.9-7.9,27-11.4l6.9-2.5
		c1.2-0.4,2.3-0.8,3.5-1.2l3.5-1.1l7-2.3l7.1-2.1l3.5-1l3.6-0.9l7.1-1.8c2.4-0.6,4.8-1.1,7.2-1.6c2.4-0.5,4.8-1.1,7.2-1.6
		c4.8-0.9,9.6-1.9,14.5-2.6c2.4-0.4,4.8-0.8,7.3-1.1l7.3-0.9c1.2-0.2,2.4-0.3,3.7-0.5l3.7-0.4l7.3-0.7l7.4-0.5
		c2.5-0.2,4.9-0.4,7.4-0.4c4.9-0.2,9.8-0.4,14.7-0.3c4.9,0,9.8,0,14.8,0.1l14.8,0.8l3.7,0.2l3.7,0.4l7.4,0.8l7.4,0.8l7.3,1.1
		l7.3,1.2l3.7,0.6c1.2,0.2,2.4,0.5,3.6,0.7l14.5,3.1c4.8,1.2,9.6,2.5,14.4,3.7c19.1,5.3,37.7,12.1,55.8,20.4
		c18,8.4,35.4,18.1,52,29.1c16.6,11,32.2,23.5,46.8,37.1l5.5,5.1c0.9,0.8,1.8,1.7,2.7,2.6l2.6,2.7l5.2,5.4c1.7,1.8,3.5,3.5,5.1,5.4
		l9.9,11.2c3.2,3.9,6.3,7.8,9.4,11.7c12.2,15.8,23.3,32.5,33,50c9.6,17.6,17.7,35.9,24.6,54.8l2.4,7.1l1.2,3.6
		c0.4,1.2,0.8,2.4,1.1,3.6l4.2,14.4c0.7,2.4,1.2,4.9,1.8,7.3l1.7,7.3l0.9,3.7c0.3,1.2,0.6,2.4,0.8,3.7l1.4,7.4
		c2,9.8,3.1,19.8,4.3,29.8l1.2,15l0.3,3.7l0.1,3.8l0.2,7.5l0.2,7.5c0,2.5-0.1,5-0.1,7.5l-0.2,7.5l-0.1,3.8l-0.1,1.9l-0.1,1.9
		l-1.2,15c-0.1,2.5-0.5,5-0.8,7.5l-1,7.5c-0.3,2.5-0.6,5-1,7.5l-1.3,7.4l-1.3,7.4c-0.2,1.2-0.4,2.5-0.7,3.7l-0.8,3.7l-3.4,14.6
		l-4.1,14.5c-5.9,19.2-13.3,37.9-22,55.9c-8.9,18-19.1,35.2-30.6,51.6l-4.4,6.1l-2.2,3l-1.1,1.5l-1.2,1.5l-9.4,11.7
		c-6.5,7.6-13,15.2-20.1,22.3c-14,14.3-28.9,27.7-45,39.5c-16.1,11.9-33,22.5-50.6,31.9l-13.4,6.7c-1.1,0.6-2.3,1.1-3.4,1.6
		l-3.4,1.5l-6.8,3c-4.5,2.1-9.2,3.7-13.9,5.5l-7,2.7c-2.3,0.9-4.7,1.6-7.1,2.4l-7.1,2.3c-2.4,0.8-4.7,1.6-7.1,2.2l-14.4,3.9
		c-9.7,2.2-19.4,4.4-29.2,5.9l-7.4,1.2c-1.2,0.2-2.5,0.4-3.7,0.5l-3.7,0.4l-7.4,0.8l-3.7,0.4l-1.8,0.2c-0.6,0.1-1.2,0.1-1.9,0.1
		l-14.9,0.9c-2.5,0.2-5,0.2-7.4,0.2l-7.4,0.1l-7.4,0.1l-7.4-0.2l-3.7-0.1l-3.7-0.2l-7.4-0.5c-9.9-0.8-19.7-1.8-29.5-3.4
		c-19.5-3-38.8-7.7-57.6-13.8c-37.5-12.3-72.8-30.5-104.3-53.9c-15.7-11.7-30.5-24.5-44.1-38.5c-13.6-14-26-29-37.1-44.9
		c-1.6-2.3-1-5.4,1.2-7c2.2-1.5,5.1-1.1,6.8,0.9l0,0c23.9,29.2,52,54.6,83.1,75.2c3.9,2.5,7.8,5.1,11.8,7.4c4,2.5,8,4.7,12.1,7
		c8.2,4.5,16.4,8.7,24.9,12.5l3.2,1.5c1.1,0.5,2.1,0.9,3.2,1.4l6.4,2.7l6.5,2.6l3.2,1.3l3.3,1.2l6.5,2.4l6.6,2.2
		c2.2,0.7,4.4,1.4,6.6,2.1c2.2,0.6,4.4,1.3,6.7,2c17.8,4.9,36,8.6,54.3,10.7c9.2,1.1,18.4,1.8,27.6,2.2l6.9,0.2l3.5,0.1l3.5,0l6.9,0
		l6.9-0.3l6.9-0.3c2.3-0.1,4.6-0.2,6.9-0.4l13.7-1.3c0.6-0.1,1.1-0.1,1.7-0.2l1.7-0.2l3.4-0.5l6.8-1l3.4-0.5
		c1.1-0.2,2.3-0.3,3.4-0.6l6.8-1.3c9-1.6,17.9-4,26.8-6.2l13.2-3.9c2.2-0.6,4.4-1.4,6.5-2.2l6.5-2.3c2.1-0.8,4.3-1.5,6.5-2.3
		l6.3-2.6c4.2-1.8,8.5-3.4,12.6-5.4l6.2-2.9l3.1-1.4c1-0.5,2.1-1,3.1-1.5l12.1-6.4c16-8.9,31.3-18.9,45.7-30l10.7-8.6l10.3-9
		l2.6-2.3l2.5-2.4l4.9-4.8c1.6-1.6,3.3-3.2,4.9-4.8l4.7-5c6.4-6.5,12.2-13.5,18-20.5l8.4-10.8l1-1.3l1-1.4l2-2.8l3.9-5.6
		c10.2-15,19.5-30.7,27.4-47.1c7.8-16.4,14.2-33.4,19.5-50.8l3.7-13.1l3.1-13.3l0.8-3.3c0.2-1.1,0.4-2.2,0.6-3.3l1.2-6.7l1.2-6.7
		c0.4-2.2,0.6-4.5,0.9-6.8l0.8-6.8c0.3-2.3,0.6-4.5,0.7-6.8l1-13.6l0.1-1.7l0-1.7l0.1-3.4l0.2-6.8c0-2.3,0.2-4.5,0.1-6.8l-0.2-6.8
		l-0.2-6.8l-0.1-3.4l-0.3-3.4l-1-13.6c-1.1-9-2.1-18-3.8-27l-1.2-6.7c-0.2-1.1-0.4-2.2-0.7-3.3l-0.8-3.3l-1.5-6.6
		c-0.5-2.2-0.9-4.4-1.6-6.6l-3.7-13.1c-0.3-1.1-0.6-2.2-1-3.3l-1.1-3.2l-2.2-6.5c-5.9-17.2-13.1-33.9-21.6-50
		c-8.6-16-18.3-31.5-29.2-46.1c-2.8-3.6-5.5-7.3-8.3-10.8l-8.8-10.5c-1.4-1.8-3-3.4-4.6-5.1l-4.7-5l-2.3-2.5
		c-0.8-0.8-1.5-1.7-2.4-2.5l-4.9-4.8c-13-12.8-27-24.7-41.9-35.3c-14.9-10.6-30.6-20.2-47-28.5c-16.4-8.2-33.5-15-51-20.8
		c-4.4-1.3-8.8-2.7-13.2-4l-13.4-3.4c-1.1-0.3-2.2-0.6-3.4-0.8l-3.4-0.7l-6.8-1.4l-6.8-1.3l-6.9-1l-6.9-1l-3.4-0.5l-3.4-0.3
		l-13.8-1.3c-4.6-0.3-9.2-0.4-13.9-0.7c-4.6-0.3-9.3-0.2-13.9-0.3c-2.3,0-4.6,0-7,0.1l-7,0.2l-6.9,0.4l-3.5,0.2
		c-1.2,0.1-2.3,0.2-3.5,0.3l-6.9,0.6c-2.3,0.2-4.6,0.5-6.9,0.8c-4.6,0.5-9.2,1.2-13.8,1.9c-18.4,2.9-36.5,7.5-54.2,13.3
		c-70.9,23.4-134.4,70.2-177.6,132.1l-0.1,0.2c-1.6,2.3-4.7,2.8-7,1.2c-2.3-1.6-2.8-4.7-1.2-7C214.1,292.1,214.1,292,214.1,292z"/>
</g>
</svg>
